# xmcd
#
# Track frame offsets: 
#        150
#        32356
#        48863
#        69008
#        94726
#        104879
#        128909
#        135111
#        140719
#        147471
#        165590
#        184230
#        196295
#        206138
#        225820
#        242812
#
# Disc length: 3406 seconds
#
# Revision: 2
# Processed by: cddbd v1.5.1PL0 Copyright (c) Steve Scherf et al.
# Submitted via: ExactAudioCopy v0.95a5
#
DISCID=dd0d4c10
DTITLE=Bobby McFerrin - Beyond Words
DYEAR=2002
DGENRE=Jazz
TTITLE0=Invocation
TTITLE1=Kalimba Suite
TTITLE2=A Silcen Road
TTITLE3=Fertile Field
TTITLE4=Dervishes
TTITLE5=Ziggurat
TTITLE6=Sisters
TTITLE7=Circlings
TTITLE8=Chanson
TTITLE9=Windows
TTITLE10=Marlowe
TTITLE11=Mass
TTITLE12=Pat and Joe
TTITLE13=Taylor Made
TTITLE14=A Piece, a Chord
TTITLE15=Monks/ The Shepherd
EXTD=
EXTT0=
EXTT1=
EXTT2=
EXTT3=
EXTT4=
EXTT5=
EXTT6=
EXTT7=
EXTT8=
EXTT9=
EXTT10=
EXTT11=
EXTT12=
EXTT13=
EXTT14=
EXTT15=
PLAYORDER=
